<?xml version="1.0" standalone="no"?>
<!DOCTYPE svg PUBLIC "-//W3C//DTD SVG 20010904//EN"
 "http://www.w3.org/TR/2001/REC-SVG-20010904/DTD/svg10.dtd">
<svg  version="1.0" xmlns="http://www.w3.org/2000/svg"
 width="512.000000pt" height="512.000000pt" viewBox="0 0 512.000000 512.000000"
 preserveAspectRatio="xMidYMid meet">

<g transform="translate(0.000000,512.000000) scale(0.100000,-0.100000)"
fill="#857466" stroke="none">
<path d="M2430 5014 c-504 -33 -940 -172 -1320 -421 -616 -405 -995 -1042
-1086 -1829 -20 -169 -14 -503 11 -664 64 -413 219 -786 460 -1108 99 -134
319 -354 448 -451 214 -159 467 -297 709 -385 105 -38 140 -46 195 -46 115 0
207 59 252 161 18 39 21 70 23 245 3 223 -6 285 -51 333 -16 17 -41 33 -56 37
-16 4 -88 -1 -161 -11 -296 -41 -446 28 -559 256 -36 74 -41 87 -20 61 43 -53
150 -128 228 -161 151 -62 328 -64 510 -4 127 42 161 81 177 205 5 47 16 80
29 97 46 57 54 74 59 121 5 55 -23 118 -66 146 -13 9 -90 26 -170 39 -244 40
-395 92 -515 179 -216 155 -319 380 -334 731 -10 244 23 359 158 546 90 125
97 151 69 232 -27 77 -38 255 -21 339 l12 56 70 -19 c76 -21 171 -66 277 -131
95 -58 162 -88 199 -88 17 0 69 9 115 20 147 35 305 53 478 53 179 1 302 -12
450 -46 52 -11 122 -21 156 -22 56 0 68 4 140 49 176 109 269 153 361 174 l42
10 12 -57 c18 -86 14 -196 -11 -307 -28 -127 -24 -154 38 -227 67 -79 118
-169 149 -262 22 -68 27 -102 31 -231 10 -364 -92 -641 -292 -792 -113 -86
-245 -137 -476 -187 -212 -45 -277 -72 -305 -125 -31 -60 -9 -145 50 -200 37
-34 62 -86 81 -167 14 -59 15 -114 9 -405 -7 -362 -3 -413 41 -499 26 -52 81
-104 133 -127 23 -10 64 -16 116 -15 68 0 97 6 190 40 370 135 663 316 924
568 378 366 610 824 698 1377 25 162 25 586 0 748 -119 750 -484 1347 -1057
1729 -145 97 -237 147 -393 215 -240 104 -479 169 -738 200 -130 16 -375 26
-469 20z m423 -339 c265 -31 506 -99 726 -205 719 -348 1182 -1083 1208 -1921
15 -471 -105 -903 -354 -1274 -174 -258 -390 -459 -680 -632 -91 -54 -272
-139 -368 -173 -27 -10 -58 -21 -67 -25 -16 -6 -17 20 -15 372 2 361 1 381
-20 451 -15 52 -18 74 -10 77 7 2 48 14 92 26 457 124 766 463 861 945 27 133
24 376 -5 514 -29 135 -88 284 -151 384 l-51 78 12 81 c7 50 10 133 6 216 -9
210 -56 359 -133 417 -31 24 -47 28 -120 32 -94 5 -168 -7 -282 -45 -79 -26
-258 -112 -331 -157 l-41 -26 -98 19 c-204 41 -427 56 -627 41 -132 -9 -360
-41 -398 -56 -7 -2 -69 24 -138 60 -215 112 -381 166 -513 169 -154 2 -201
-44 -256 -253 -28 -107 -38 -317 -21 -426 l13 -74 -47 -71 c-60 -91 -106 -201
-140 -330 -39 -149 -46 -383 -17 -554 42 -243 133 -450 268 -611 l43 -51 -87
30 c-112 39 -261 49 -340 23 -81 -27 -142 -110 -142 -194 0 -47 31 -92 133
-193 117 -116 181 -209 238 -341 21 -48 48 -105 61 -126 l22 -37 -58 50 c-32
27 -92 86 -133 130 -540 579 -708 1436 -436 2219 288 827 971 1358 1863 1449
99 10 418 6 533 -8z m-1335 -3224 c57 -29 232 -88 301 -102 69 -13 75 -29 15
-42 -64 -14 -164 -4 -216 21 -46 23 -120 88 -139 124 -12 23 -7 23 39 -1z
m178 -904 l104 -2 0 -52 0 -53 -64 24 c-86 33 -209 86 -220 96 -4 5 11 4 34
-1 23 -5 89 -11 146 -12z"/>
</g>
</svg>
